<svg xmlns="http://www.w3.org/2000/svg" width="579.841" height="369.076" viewBox="0 0 579.841 369.076"><rect width="439.229" height="1.558" transform="translate(25.181 276.343)" fill="#3f3d56"/><rect width="503.211" height="244.878" fill="#3f3d56"/><path d="M584.762,138.837V132.11H569.289V120h-6.728v12.109H103.751V120H97.024v12.109H81.551v6.727H97.024v207.2H81.551v6.727H97.024v12.109h6.727V352.769h458.81v12.109h6.727V352.769h15.473v-6.727H569.289v-207.2Zm-22.2,207.2H103.751v-207.2h458.81Z" transform="translate(-81.551 -120)" opacity="0.1"/><rect width="79.344" height="75.474" transform="translate(222.418 32.292)" fill="#d0cde1"/><rect width="61.311" height="46.885" transform="translate(231.434 41.308)" fill="#6c63ff"/><rect width="21.494" height="21.494" transform="translate(244.925 49.013)" fill="#f2f2f2"/><path d="M534.253,217.259v26.1h26.1v-26.1Zm24.968,24.968H535.385V218.391h23.836Z" transform="translate(-281.099 -162.871)" fill="#3f3d56"/><rect width="33.349" height="1.755" transform="translate(231.374 92.847)" fill="#f2f2f2"/><circle cx="3.51" cy="3.51" r="3.51" transform="translate(258.579 33.169)" fill="#3f3d56"/><rect width="79.344" height="75.474" transform="translate(252.343 141.149)" fill="#d0cde1"/><rect width="61.311" height="46.885" transform="translate(261.359 150.165)" fill="#6c63ff"/><rect width="33.349" height="1.755" transform="translate(261.298 202.581)" fill="#f2f2f2"/><rect width="33.349" height="1.755" transform="translate(261.298 207.847)" fill="#f2f2f2"/><circle cx="7.021" cy="7.021" r="7.021" transform="translate(265.247 166.599)" fill="#3f3d56"/><circle cx="7.021" cy="7.021" r="7.021" transform="translate(284.994 166.599)" fill="#f2f2f2"/><circle cx="7.021" cy="7.021" r="7.021" transform="translate(304.74 166.599)" fill="#ff6584"/><circle cx="3.51" cy="3.51" r="3.51" transform="translate(288.504 142.026)" fill="#3f3d56"/><rect width="79.344" height="75.474" transform="translate(130.911 117.566)" fill="#d0cde1"/><rect width="61.311" height="46.885" transform="translate(139.927 126.583)" fill="#6c63ff"/><circle cx="14.885" cy="14.885" r="14.885" transform="translate(151.615 140.62)" fill="#f2f2f2"/><path d="M372.43,389.192a18.663,18.663,0,1,1,18.663-18.663,18.663,18.663,0,0,1-18.663,18.663Zm0-36.647a17.984,17.984,0,1,0,17.984,17.984,17.984,17.984,0,0,0-17.984-17.984Z" transform="translate(-201.542 -222.205)" fill="#3f3d56"/><rect width="33.349" height="1.755" transform="translate(139.867 183.388)" fill="#f2f2f2"/><rect width="46.513" height="1.755" transform="translate(139.867 178.122)" fill="#f2f2f2"/><circle cx="3.51" cy="3.51" r="3.51" transform="translate(167.072 118.444)" fill="#3f3d56"/><rect width="79.344" height="75.474" transform="translate(43.704 30.946)" fill="#d0cde1"/><rect width="61.311" height="46.885" transform="translate(52.72 39.963)" fill="#6c63ff"/><rect width="13.19" height="3.909" transform="translate(76.781 76.667)" fill="#3f3d56"/><rect width="45.081" height="1.675" transform="translate(60.835 46.235)" fill="#3f3d56"/><rect width="45.081" height="1.675" transform="translate(60.835 51.539)" fill="#3f3d56"/><rect width="45.081" height="1.675" transform="translate(60.835 56.844)" fill="#3f3d56"/><rect width="45.081" height="1.675" transform="translate(60.835 62.148)" fill="#3f3d56"/><rect width="45.081" height="1.675" transform="translate(60.835 67.453)" fill="#3f3d56"/><rect width="33.349" height="1.755" transform="translate(52.659 91.501)" fill="#f2f2f2"/><rect width="46.513" height="1.755" transform="translate(52.659 95.889)" fill="#f2f2f2"/><circle cx="3.51" cy="3.51" r="3.51" transform="translate(79.865 31.824)" fill="#3f3d56"/><path d="M734.511,261.917l57.463,4.222,16.25,1.194-1.009-1.009,3.052,44.144,1.526,22.072c.062.892.125,1.784.185,2.675.05.741.254,1.456-.624,1.639-1.747.364-3.565.515-5.334.739q-5.395.681-10.813,1.146a274.047,274.047,0,0,1-43.453.272q-5.423-.4-10.827-1.011c-1.34-.152-3-.209-3.492-1.712a29.412,29.412,0,0,1-.819-4.917q-1.524-10.741-2.077-21.593a247.77,247.77,0,0,1,1.527-43.2q.325-2.632.71-5.256c.185-1.27-1.759-1.819-1.946-.536a249.809,249.809,0,0,0-2.493,44.737q.391,11.224,1.8,22.383.356,2.818.772,5.628c.222,1.491.276,3.249,1.163,4.53a5.016,5.016,0,0,0,3.706,1.821c1.8.24,3.608.411,5.413.588a273.919,273.919,0,0,0,45.091.667q5.672-.384,11.324-1,2.784-.305,5.562-.668,1.36-.177,2.718-.367a12.505,12.505,0,0,0,2.5-.435c1.7-.613,1.7-2.253,1.594-3.782l-.393-5.685-.786-11.371-3.167-45.816-.393-5.685a1.039,1.039,0,0,0-1.009-1.009l-57.463-4.222-16.25-1.194c-1.3-.1-1.29,1.923,0,2.018Z" transform="translate(-368.349 -181.665)" fill="#d0cde1"/><path d="M774.093,295.841c.29-.77-.439.889-.073.155.1-.2.188-.392.292-.585a11.155,11.155,0,0,1,.682-1.108c.248-.355.624-.491-.108.125a5.274,5.274,0,0,0,.425-.493,12.425,12.425,0,0,1,1.092-1.058c.277-.237.8-.439-.137.086.185-.1.357-.26.534-.379q.544-.366,1.123-.678.289-.156.586-.3c.336-.16.895-.216-.162.055.454-.116.892-.331,1.346-.459q.578-.164,1.169-.276c.352-.066.991-.016-.211.011.215,0,.435-.046.65-.061a12.262,12.262,0,0,1,1.3-.019c.217.008.432.03.649.043.72.043-1.089-.2,0,.008a10.989,10.989,0,0,1,1.263.319,4.819,4.819,0,0,0,.618.217l-.558-.241q.206.089.407.187a11.243,11.243,0,0,1,1.163.651c.187.119.365.249.548.373.575.391-.77-.658.045.057q.415.364.8.763.229.24.444.491c.242.282.427.8-.078-.126.462.845,1.04,1.612,1.476,2.483.371.743-.339-.923-.056-.141.076.211.158.419.23.632q.215.638.372,1.294c.1.438.155.885.252,1.323-.265-1.206-.071-.508-.045-.181q.036.447.043.9.009.56-.027,1.12c-.014.218-.063.451-.06.669-.015-1.132.082-.568.012-.188a12.7,12.7,0,0,1-.313,1.305q-.1.323-.209.639-.1.281-.212.558.325-.758.052-.144c-1.115,2.229-2.5,4.308-3.6,6.545a29.863,29.863,0,0,0-2.617,17.985,4.038,4.038,0,0,0,1.855,2.412,4.037,4.037,0,0,0,5.93-4.558c-.123-.79.065.7-.016-.091-.035-.341-.069-.682-.093-1.024q-.072-1.026-.059-2.055.011-.881.085-1.76A5.21,5.21,0,0,1,791,320.3s-.13.812-.042.346c.036-.192.062-.387.1-.58a24.93,24.93,0,0,1,1-3.833c.1-.277.2-.551.3-.827.269-.727-.28.584.045-.12.291-.628.591-1.247.922-1.855a59.02,59.02,0,0,0,3.974-7.69,16.137,16.137,0,0,0,.9-6.728,18.03,18.03,0,0,0-6.091-12.532,15.886,15.886,0,0,0-14.034-3.2,16.78,16.78,0,0,0-11.766,10.413,4.055,4.055,0,0,0,2.819,4.965,4.147,4.147,0,0,0,4.965-2.819Z" transform="translate(-383.305 -191.763)" fill="#d0cde1"/><path d="M802.951,386.827a3.355,3.355,0,1,0-3.355-3.355,3.393,3.393,0,0,0,3.355,3.355Z" transform="translate(-398.061 -234.658)" fill="#d0cde1"/><rect width="18.837" height="18.837" transform="translate(22.251 269.532)" fill="#6c63ff"/><path d="M157.447,598.4H134.574V575.523h22.873Zm-21.879-.994h20.884V576.517H135.568Z" transform="translate(-104.923 -320.792)" fill="#3f3d56"/><path d="M895.737,420.156l-2.691,8.073s-16.819,19.509-4.709,22.2,13.455-20.855,13.455-20.855l3.364-6.727Z" transform="translate(-435.245 -252.307)" fill="#ffb8b8"/><path d="M920.681,245.714s-4.036-.673-5.382,15.473-2.018,44.4-2.018,44.4L897.808,345.28l19.509,6.055,9.419-45.074Z" transform="translate(-441.352 -175.412)" fill="#575a89"/><path d="M839.93,555.2l-2.018,12.782h18.164L855.4,555.2Z" transform="translate(-369.347 -244.729)" fill="#ffb8b8"/><path d="M945.124,579.4l-1.346,17.491,12.11,1.345V578.057Z" transform="translate(-416.012 -254.804)" fill="#ffb8b8"/><path d="M924.108,376.376l-15.473,88.8,4.036,80.729h20.855V472.578L953.709,434.9,969.854,482l4.036,78.711,22.873-4.036-5.38-76.693s-4.036-102.257-8.073-103.6S924.108,376.376,924.108,376.376Z" transform="translate(-446.125 -232.745)" fill="#2f2e41"/><path d="M901.922,687.7s0-6.727-5.382-2.691-12.109,11.437-12.109,11.437-25.564,14.127-7.4,16.146a38.161,38.161,0,0,0,29.6-9.419l2.018,2.018s10.764-2.018,10.764-4.709a51.935,51.935,0,0,0-.673-6.727s-1.415-11.411-3.062-9.069S904.613,691.737,901.922,687.7Z" transform="translate(-429.321 -368.485)" fill="#2f2e41"/><path d="M1030.87,722.236s-12.109-6.055-14.8-.673-4.709,16.146-4.709,16.146-8.748,16.819,6.726,15.473,14.8-10.091,14.8-12.109-.673-6.727,0-8.746S1030.87,722.236,1030.87,722.236Z" transform="translate(-490.32 -384.183)" fill="#2f2e41"/><circle cx="18.837" cy="18.837" r="18.837" transform="translate(495.138 6.055)" fill="#ffb8b8"/><path d="M896.33,60.753l-.673,24.219,24.219-2.018v-22.2Z" transform="translate(-394.801 -26.78)" fill="#ffb8b8"/><path d="M987.392,198.8s-11.437,7.4-14.8,8.746-10.764-5.382-10.764-5.382-2.018,1.346-2.018,2.691a58.277,58.277,0,0,1-1.345,6.727L942.32,264.728l1.345,37.674s49.11,4.709,54.492-1.345-2.691-92.838-2.691-92.838Z" transform="translate(-460.973 -154.734)" fill="#d0cde1"/><path d="M997.82,224.062s-18.164,6.727-24.219.673C973.6,224.735,982.345,226.753,997.82,224.062Z" transform="translate(-474.761 -165.87)" opacity="0.1"/><path d="M1054.864,358.339c-7.4,4.709-31.619,10.764-31.619,10.764s-2.644-56.948-12.109-65.929c-9.412-8.941-24.777-73.4-10.959-84.6a2.064,2.064,0,0,1,.2-.161l8.745-20.182s1.346-2.018,4.036.673a73.451,73.451,0,0,1,6.055,7.4l.383.155,18.453,7.245-7.4,32.964S1062.268,353.629,1054.864,358.339Z" transform="translate(-484.044 -154.161)" fill="#575a89"/><path d="M1023.946,206.454l-5.093,18.682-14.323-6.566a2.069,2.069,0,0,1,.2-.161l8.746-20.182s1.346-2.018,4.036.673a73.43,73.43,0,0,1,6.055,7.4Z" transform="translate(-488.395 -154.161)" opacity="0.1"/><path d="M947.8,204.212l-2.018,22.873-.108,1.043L930.307,374.416s-13.455-4.709-18.164-10.091,10.764-65.256,10.764-65.256l1.346-75.347s11.934-8.4,16.812-13.018a7.535,7.535,0,0,0,2.025-2.455C943.762,205.557,947.8,204.212,947.8,204.212Z" transform="translate(-447.278 -157.12)" fill="#575a89"/><path d="M967.326,204.212l-2.018,22.873-.108,1.043-9.647-1.379,5.039-16.045a7.532,7.532,0,0,0,2.025-2.455C963.29,205.557,967.326,204.212,967.326,204.212Z" transform="translate(-466.806 -157.12)" opacity="0.1"/><path d="M1035.137,406.923l-7.4,6.727s3.364,14.128,7.4,14.8a25.752,25.752,0,0,0,3.364-7.4c.673-3.364,6.727-6.727,6.727-6.727Z" transform="translate(-498.624 -246.474)" fill="#ffb8b8"/><path d="M1046.535,224.062l8.745,1.345s28.928,49.11,25.564,66.6-30.273,47.765-30.273,47.765l-16.819-13.455,24.891-33.637-12.78-40.364Z" transform="translate(-501.276 -165.87)" fill="#575a89"/><path d="M966.906,147.538s0-16.612,4.037-20.387h4.844s5.652-8.306,12.918-5.286,19.377,8.306,18.57,16.612a45.479,45.479,0,0,1-3.325,13.673s-1.346,0-4.344-4.515c-4.008-6.034,5.248-4.153-6.863-6.418s-19.377-5.286-20.992-2.265S966.906,147.538,966.906,147.538Z" transform="translate(-471.81 -120.53)" fill="#2f2e41"/><path d="M982.645,129.2s.645-4.855,3.3-5.9Z" transform="translate(-478.748 -121.456)" fill="#2f2e41"/><path d="M982.277,130.337s-1.348-4.709.67-6.728Z" transform="translate(-478.391 -121.591)" fill="#2f2e41"/></svg>