<svg xmlns="http://www.w3.org/2000/svg" viewBox="0 0 67 75">
  <path id="Path_27" data-name="Path 27" d="M41.146,13A5.259,5.259,0,0,0,36,18.354V20H29.271C20.785,20,17,23.629,17,31.764V37a1,1,0,0,0,.293.707L22,42.414V45.02a5.008,5.008,0,0,0-4,4.9v4a5.006,5.006,0,0,0,4,4.9V75.309C22,82.3,27.13,87,34.766,87h30.27C72.79,87,78,82.3,78,75.309V58.814a5.007,5.007,0,0,0,4-4.9v-4a5.008,5.008,0,0,0-4-4.9V42.336l4.7-4.623A1,1,0,0,0,83,37V31.764C83,23.629,79.215,20,70.727,20H64V18.354A5.259,5.259,0,0,0,58.854,13Zm0,2H58.854A3.258,3.258,0,0,1,62,18.354V20H38V18.354A3.258,3.258,0,0,1,41.146,15ZM29.271,22H70.729c7.023,0,10.044,2.62,10.26,9H19.014a16.687,16.687,0,0,1,.185-2H72.5a.5.5,0,0,0,0-1H19.395C20.412,23.791,23.477,22,29.271,22ZM75.5,28a.5.5,0,0,0,0,1h3a.5.5,0,0,0,0-1ZM19,33H81v2H19Zm0,3H81v.58L76.3,41.2a1,1,0,0,0-.3.715V75.309A9.28,9.28,0,0,1,74.264,81H25.705A9.4,9.4,0,0,1,24,75.309V42a1,1,0,0,0-.293-.707L19,36.586Zm13,3.918a3,3,0,0,0-3,3V60.5a.5.5,0,0,0,1,0V42.918a2,2,0,1,1,4,0v31a2,2,0,0,1-4,0V70.5a.5.5,0,0,0-1,0v3.418a3,3,0,0,0,6,0v-31A3,3,0,0,0,32,39.918ZM44,40a3,3,0,0,0-3,3V74a3,3,0,0,0,6,0V43A3,3,0,0,0,44,40Zm12,0a3,3,0,0,0-3,3V74a3,3,0,0,0,6,0V43A3,3,0,0,0,56,40Zm12,0a3,3,0,0,0-3,3V74a3,3,0,0,0,6,0V43A3,3,0,0,0,68,40ZM44,41a2,2,0,0,1,2,2V74a2,2,0,0,1-4,0V43A2,2,0,0,1,44,41Zm12,0a2,2,0,0,1,2,2V74a2,2,0,0,1-4,0V43A2,2,0,0,1,56,41Zm12,0a2,2,0,0,1,2,2V74a2,2,0,0,1-4,0V43A2,2,0,0,1,68,41ZM22,47.088v9.658a3,3,0,0,1-2-2.828v-4A3.007,3.007,0,0,1,22,47.088Zm56,0a3,3,0,0,1,2,2.828v4a3,3,0,0,1-2,2.828ZM29.5,62a.5.5,0,0,0-.5.5v3a.5.5,0,0,0,1,0v-3A.5.5,0,0,0,29.5,62ZM26.563,82H73.391a12.044,12.044,0,0,1-8.355,3H34.766A11.7,11.7,0,0,1,26.563,82Z" transform="translate(-16.5 -12.5)" fill="#fff" stroke="#fff" stroke-width="1"/>
</svg>
